<svg width="17" height="16" viewBox="0 0 17 16" fill="none" xmlns="http://www.w3.org/2000/svg">
<path fill-rule="evenodd" clip-rule="evenodd" d="M8.49999 2C8.9142 2 9.24999 2.33579 9.24999 2.75V7.25H13.75C14.1642 7.25 14.5 7.58579 14.5 8C14.5 8.41422 14.1642 8.75 13.75 8.75H9.24999V13.25C9.24999 13.6642 8.9142 14 8.49999 14C8.08578 14 7.74999 13.6642 7.74999 13.25V8.75H3.25C2.83579 8.75 2.5 8.41422 2.5 8C2.5 7.58579 2.83579 7.25 3.25 7.25H7.74999V2.75C7.74999 2.33579 8.08578 2 8.49999 2Z" fill="white"/>
</svg>
