<svg width="20" height="20" viewBox="0 0 20 20" fill="none" xmlns="http://www.w3.org/2000/svg">
<path d="M14.8723 17.8464H6.21209C5.88397 17.8464 5.56929 17.716 5.33728 17.484C5.10526 17.252 4.97491 16.9373 4.97491 16.6092V5.47461H16.1095V16.6092C16.1095 16.9373 15.9792 17.252 15.7472 17.484C15.5151 17.716 15.2005 17.8464 14.8723 17.8464Z" stroke="white" stroke-width="1.3" stroke-linecap="round" stroke-linejoin="round"/>
<path d="M8.68634 14.1343V9.18555" stroke="white" stroke-width="1.3" stroke-linecap="round" stroke-linejoin="round"/>
<path d="M12.3978 14.1343V9.18555" stroke="white" stroke-width="1.3" stroke-linecap="round" stroke-linejoin="round"/>
<path d="M2.5 5.47461H18.5833" stroke="white" stroke-width="1.3" stroke-linecap="round" stroke-linejoin="round"/>
<path d="M12.3971 3H8.6856C8.35748 3 8.0428 3.13035 7.81079 3.36236C7.57877 3.59438 7.44843 3.90906 7.44843 4.23718V5.47436H13.6343V4.23718C13.6343 3.90906 13.504 3.59438 13.272 3.36236C13.0399 3.13035 12.7253 3 12.3971 3Z" stroke="white" stroke-width="1.3" stroke-linecap="round" stroke-linejoin="round"/>
</svg>
