<svg width="24" height="24" viewBox="0 0 24 24" fill="none" xmlns="http://www.w3.org/2000/svg">
<path d="M18.3148 6.60905C18.1191 6.41422 17.8868 6.26009 17.6312 6.15556C17.3757 6.05103 17.1019 5.99818 16.8258 6.00005C16.5497 6.00192 16.2767 6.05847 16.0226 6.16645C15.7684 6.27443 15.5382 6.43169 15.3452 6.62915L7.01666 14.9577L6 18.9238L9.96612 17.9066L18.2947 9.57804C18.4922 9.38512 18.6495 9.15497 18.7575 8.90088C18.8655 8.6468 18.9221 8.37382 18.924 8.09773C18.9258 7.82165 18.873 7.54793 18.7684 7.29241C18.6638 7.03688 18.5097 6.80462 18.3148 6.60905V6.60905Z" stroke="#615E83" stroke-width="1.3" stroke-linecap="round" stroke-linejoin="round"/>
</svg>
