<svg width="1065" height="780" viewBox="0 0 1065 780" fill="none" xmlns="http://www.w3.org/2000/svg">
<path d="M711.92 98.815L537.13 5.845C532.5 3.385 526.95 3.385 522.32 5.845L347.58 98.825C342.62 101.465 339.44 106.545 339.23 112.155C331.6 316.625 393.27 454.265 522.52 521.245C524.79 522.425 527.28 523.015 529.77 523.015C532.26 523.015 534.75 522.425 537.03 521.245C666.24 454.235 727.89 316.595 720.26 112.155C720.05 106.545 716.87 101.465 711.91 98.825L711.92 98.815ZM529.78 489.355C417.51 427.375 365.34 307.175 370.46 122.365L529.74 37.615L689.06 122.365C694.18 307.145 642.02 427.345 529.78 489.355Z" fill="url(#paint0_linear_162_7804)"/>
<path d="M529.97 489.365C642.19 427.345 694.38 307.135 689.24 122.365L529.94 37.6052L704.35 114.415C713.27 318.965 646.77 448.565 529.98 489.365H529.97Z" fill="url(#paint1_linear_162_7804)"/>
<path d="M529.91 489.365C417.69 427.345 365.5 307.135 370.64 122.365L529.94 37.6052L355.53 114.415C346.61 318.965 413.11 448.565 529.9 489.365H529.91Z" fill="url(#paint2_linear_162_7804)"/>
<path d="M532.952 363.281C476.958 363.281 441.911 323.989 441.911 261.287C441.911 198.584 476.958 159.156 532.952 159.156C588.946 159.156 623.994 198.584 623.994 261.287C623.994 299.483 610.988 329.055 588.125 346.305L614.274 382.311H586.619L568.274 357.12C557.732 361.227 545.958 363.281 532.952 363.281ZM532.952 340.555C540.482 340.555 547.464 339.459 553.899 337.406L529.256 303.453H556.911L573.75 326.453C589.631 313.037 598.667 290.311 598.667 261.287C598.667 212.549 573.339 181.882 532.952 181.882C492.565 181.882 467.238 212.549 467.238 261.287C467.238 309.888 492.565 340.555 532.952 340.555Z" fill="url(#paint3_linear_162_7804)"/>
<path d="M163.716 642.394L154.938 634.528C147.87 639.088 139.966 641.368 131.226 641.368C119.066 641.368 108.958 637.378 100.902 629.398C92.9222 621.418 88.9322 611.652 88.9322 600.1C88.9322 588.624 92.9602 578.896 101.016 570.916C109.148 562.86 119.294 558.832 131.454 558.832C143.614 558.832 153.684 562.822 161.664 570.802C169.72 578.782 173.748 588.548 173.748 600.1C173.748 608.536 171.392 616.174 166.68 623.014L174.888 629.968L163.716 642.394ZM131.454 625.18C135.178 625.18 138.674 624.458 141.942 623.014L128.946 611.956L140.118 599.416L153.228 611.272C154.672 608.08 155.394 604.356 155.394 600.1C155.394 593.108 153.114 587.18 148.554 582.316C143.994 577.452 138.218 575.02 131.226 575.02C124.234 575.02 118.496 577.452 114.012 582.316C109.528 587.104 107.286 593.032 107.286 600.1C107.286 607.092 109.566 613.02 114.126 617.884C118.686 622.748 124.462 625.18 131.454 625.18ZM256.126 629.398C248.07 637.378 237.962 641.368 225.802 641.368C213.642 641.368 203.534 637.378 195.478 629.398C187.498 621.418 183.508 611.652 183.508 600.1C183.508 588.624 187.536 578.896 195.592 570.916C203.724 562.86 213.87 558.832 226.03 558.832C238.19 558.832 248.26 562.822 256.24 570.802C264.296 578.782 268.324 588.548 268.324 600.1C268.324 611.576 264.258 621.342 256.126 629.398ZM208.702 617.884C213.262 622.748 219.038 625.18 226.03 625.18C233.022 625.18 238.76 622.786 243.244 617.998C247.728 613.134 249.97 607.168 249.97 600.1C249.97 593.108 247.69 587.18 243.13 582.316C238.57 577.452 232.794 575.02 225.802 575.02C218.81 575.02 213.072 577.452 208.588 582.316C204.104 587.104 201.862 593.032 201.862 600.1C201.862 607.092 204.142 613.02 208.702 617.884ZM281.617 640V560.2H318.097C328.205 560.2 335.957 562.898 341.353 568.294C345.913 572.854 348.193 579.01 348.193 586.762C348.193 598.998 342.493 607.244 331.093 611.5L350.587 640H330.067L312.739 614.464H299.173V640H281.617ZM299.173 598.96H316.957C321.213 598.96 324.519 597.934 326.875 595.882C329.231 593.754 330.409 590.942 330.409 587.446C330.409 583.722 329.193 580.91 326.761 579.01C324.329 577.034 320.947 576.046 316.615 576.046H299.173V598.96ZM400.138 641.368C387.75 641.368 377.642 637.492 369.814 629.74C362.062 621.988 358.186 612.108 358.186 600.1C358.186 588.624 362.176 578.896 370.156 570.916C378.136 562.86 388.092 558.832 400.024 558.832C406.94 558.832 412.792 559.744 417.58 561.568C422.368 563.316 426.966 566.052 431.374 569.776L420.316 583.114C416.972 580.302 413.742 578.25 410.626 576.958C407.51 575.666 403.786 575.02 399.454 575.02C393.07 575.02 387.636 577.49 383.152 582.43C378.744 587.294 376.54 593.184 376.54 600.1C376.54 607.396 378.782 613.438 383.266 618.226C387.826 623.014 393.64 625.408 400.708 625.408C407.244 625.408 412.754 623.812 417.238 620.62V609.22H399.568V594.058H434.224V628.714C424.268 637.15 412.906 641.368 400.138 641.368ZM441.996 640L476.196 559.63H492.384L526.584 640H508.23L500.934 622.102H467.19L459.894 640H441.996ZM473.46 606.598H494.664L484.062 580.72L473.46 606.598ZM536.621 640V560.2H552.809L590.201 609.334V560.2H607.529V640H592.595L553.949 589.27V640H536.621ZM620.529 612.982V596.338H655.641V612.982H620.529ZM697.046 641.14C683.974 641.14 672.688 636.884 663.188 628.372L673.562 615.946C681.39 622.406 689.332 625.636 697.388 625.636C700.96 625.636 703.772 624.952 705.824 623.584C707.876 622.216 708.902 620.316 708.902 617.884C708.902 615.604 707.838 613.78 705.71 612.412C703.582 610.968 699.288 609.41 692.828 607.738C688.268 606.598 684.582 605.496 681.77 604.432C678.958 603.292 676.26 601.81 673.676 599.986C671.168 598.162 669.306 595.882 668.09 593.146C666.95 590.334 666.38 586.99 666.38 583.114C666.38 575.894 668.964 570.08 674.132 565.672C679.376 561.264 686.102 559.06 694.31 559.06C705.634 559.06 715.514 562.442 723.95 569.206L714.83 582.43C707.306 577.186 700.39 574.564 694.082 574.564C690.814 574.564 688.268 575.248 686.444 576.616C684.696 577.908 683.822 579.618 683.822 581.746C683.822 584.33 684.924 586.268 687.128 587.56C689.332 588.852 693.968 590.41 701.036 592.234C709.7 594.514 716.084 597.44 720.188 601.012C724.292 604.584 726.344 609.714 726.344 616.402C726.344 624.154 723.646 630.234 718.25 634.642C712.93 638.974 705.862 641.14 697.046 641.14ZM739.3 640V560.2H756.856V595.084L789.232 560.2H810.436L777.946 594.058L811.918 640H790.828L766.09 606.028L756.856 615.604V640H739.3ZM851.912 641.254C841.044 641.254 832.57 638.252 826.49 632.248C820.41 626.168 817.37 617.352 817.37 605.8V560.2H834.926V605.344C834.926 611.728 836.408 616.63 839.372 620.05C842.412 623.394 846.668 625.066 852.14 625.066C857.612 625.066 861.83 623.432 864.794 620.164C867.834 616.896 869.354 612.146 869.354 605.914V560.2H886.91V605.23C886.91 617.086 883.794 626.054 877.562 632.134C871.406 638.214 862.856 641.254 851.912 641.254ZM902.512 640V560.2H933.634C946.098 560.2 956.282 564 964.186 571.6C972.09 579.124 976.042 588.624 976.042 600.1C976.042 611.5 972.052 621 964.072 628.6C956.168 636.2 946.022 640 933.634 640H902.512ZM920.068 624.154H933.634C940.854 624.154 946.668 621.95 951.076 617.542C955.484 613.058 957.688 607.244 957.688 600.1C957.688 593.032 955.446 587.256 950.962 582.772C946.554 578.288 940.778 576.046 933.634 576.046H920.068V624.154Z" fill="url(#paint4_linear_162_7804)"/>
<path d="M269.186 699.617H265.201C264.615 696.969 262.553 694.789 258.967 694.789C254.748 694.789 251.889 698.281 251.889 703.812C251.889 709.484 254.795 712.836 259.014 712.836C262.342 712.836 264.522 711.078 265.225 708.148H269.233C268.6 713 264.522 716.422 258.99 716.422C252.24 716.422 247.74 711.664 247.74 703.812C247.74 696.125 252.217 691.203 258.943 691.203C265.037 691.203 268.67 695.234 269.186 699.617ZM286.345 716H282.313V691.625H286.345V709.766H286.532L298.72 691.625H302.751V716H298.72V697.859H298.532L286.345 716ZM337.769 699.125H333.738C333.035 696.781 331.043 694.789 327.598 694.789C323.355 694.789 320.566 698.375 320.566 703.812C320.566 709.391 323.402 712.836 327.644 712.836C330.879 712.836 333.012 711.242 333.785 708.547H337.816C337.019 713.164 333.105 716.422 327.621 716.422C320.848 716.422 316.418 711.57 316.418 703.812C316.418 696.219 320.824 691.203 327.574 691.203C333.457 691.203 337.043 694.977 337.769 699.125ZM368.546 691.625V694.977H360.671V716H356.639V694.977H348.764V691.625H368.546ZM390.767 694.742C386.947 694.742 384.275 697.672 384.017 701.727H397.259C397.166 697.648 394.611 694.742 390.767 694.742ZM397.166 709.016H401.173C400.47 713.281 396.345 716.422 391.025 716.422C384.041 716.422 379.798 711.57 379.798 703.906C379.798 696.336 384.111 691.203 390.838 691.203C397.423 691.203 401.478 695.984 401.478 703.367V704.914H383.994V705.148C383.994 709.812 386.736 712.883 391.119 712.883C394.213 712.883 396.486 711.312 397.166 709.016ZM419.153 716H415.122V691.625H420.067L428.739 710.609H428.926L437.645 691.625H442.403V716H438.348V698.703H438.184L430.309 715.297H427.192L419.317 698.703H419.153V716ZM465.304 712.953C469.148 712.953 472.101 710.258 472.101 706.742V704.75L465.585 705.148C462.304 705.359 460.429 706.812 460.429 709.109C460.429 711.43 462.374 712.953 465.304 712.953ZM464.39 716.422C459.538 716.422 456.281 713.492 456.281 709.109C456.281 704.938 459.492 702.312 465.117 701.984L472.101 701.586V699.547C472.101 696.57 470.132 694.789 466.757 694.789C463.617 694.789 461.648 696.266 461.132 698.656H457.195C457.476 694.438 461.085 691.203 466.851 691.203C472.57 691.203 476.179 694.297 476.179 699.148V716H472.312V711.805H472.218C470.765 714.594 467.671 716.422 464.39 716.422ZM518.161 703.156L529.88 716H524.63L514.107 704.281H513.919V716H509.888V691.625H513.919V702.406H514.107L524.513 691.625H529.552L518.161 703.156ZM552.055 716.422C545.305 716.422 540.758 711.57 540.758 703.812C540.758 696.031 545.305 691.203 552.055 691.203C558.781 691.203 563.328 696.031 563.328 703.812C563.328 711.57 558.781 716.422 552.055 716.422ZM552.055 712.836C556.367 712.836 559.18 709.555 559.18 703.812C559.18 698.07 556.367 694.789 552.055 694.789C547.742 694.789 544.906 698.07 544.906 703.812C544.906 709.555 547.742 712.836 552.055 712.836ZM593.026 716V705.031H581.003V716H576.972V691.625H581.003V701.68H593.026V691.625H597.058V716H593.026ZM629.756 691.625V694.977H621.881V716H617.849V694.977H609.974V691.625H629.756ZM654.508 691.203C660.719 691.203 664.938 696.172 664.938 703.812C664.938 711.453 660.743 716.422 654.602 716.422C651.11 716.422 648.298 714.711 646.844 712.039H646.751V724.133H642.673V691.625H646.54V695.75H646.633C648.133 693.008 650.969 691.203 654.508 691.203ZM653.712 712.836C658.048 712.836 660.766 709.344 660.766 703.812C660.766 698.305 658.048 694.789 653.712 694.789C649.54 694.789 646.727 698.398 646.727 703.812C646.727 709.25 649.54 712.836 653.712 712.836ZM688.707 716.422C681.957 716.422 677.41 711.57 677.41 703.812C677.41 696.031 681.957 691.203 688.707 691.203C695.433 691.203 699.98 696.031 699.98 703.812C699.98 711.57 695.433 716.422 688.707 716.422ZM688.707 712.836C693.019 712.836 695.832 709.555 695.832 703.812C695.832 698.07 693.019 694.789 688.707 694.789C684.394 694.789 681.558 698.07 681.558 703.812C681.558 709.555 684.394 712.836 688.707 712.836ZM719.202 705.242C718.709 711.969 717.092 716.211 711.959 716.211C711.256 716.211 710.787 716.07 710.506 715.953V712.273C710.717 712.344 711.162 712.461 711.748 712.461C714.162 712.461 715.077 709.625 715.381 705.148L716.319 691.625H732.28V716H728.248V694.977H719.952L719.202 705.242ZM755.931 703.977H760.595V694.977H755.931C752.767 694.977 750.751 696.711 750.751 699.641C750.751 702.172 752.79 703.977 755.931 703.977ZM760.595 716V707.328H756.282L750.095 716H745.431L752.228 706.578C748.782 705.594 746.697 703.062 746.697 699.711C746.697 694.695 750.306 691.625 755.907 691.625H764.626V716H760.595ZM802.483 716H798.452V691.625H802.483V709.766H802.671L814.858 691.625H818.89V716H814.858V697.859H814.671L802.483 716ZM228.368 770.117C227.876 770.117 227.055 770.07 226.61 769.977V766.555C227.055 766.648 227.688 766.672 228.204 766.672C230.477 766.672 231.743 765.57 232.68 762.734L233.243 761.023L224.243 736.625H228.602L235.352 756.922H235.423L242.173 736.625H246.462L236.876 762.711C234.79 768.406 232.774 770.117 228.368 770.117ZM275.035 761V739.977H263.246V761H259.214V736.625H279.089V761H275.035ZM305.788 736.203C311.998 736.203 316.217 741.172 316.217 748.812C316.217 756.453 312.022 761.422 305.881 761.422C302.389 761.422 299.577 759.711 298.123 757.039H298.03V769.133H293.952V736.625H297.819V740.75H297.913C299.413 738.008 302.248 736.203 305.788 736.203ZM304.991 757.836C309.327 757.836 312.045 754.344 312.045 748.812C312.045 743.305 309.327 739.789 304.991 739.789C300.819 739.789 298.006 743.398 298.006 748.812C298.006 754.25 300.819 757.836 304.991 757.836ZM337.923 757.953C341.767 757.953 344.72 755.258 344.72 751.742V749.75L338.204 750.148C334.923 750.359 333.048 751.812 333.048 754.109C333.048 756.43 334.993 757.953 337.923 757.953ZM337.009 761.422C332.158 761.422 328.9 758.492 328.9 754.109C328.9 749.938 332.111 747.312 337.736 746.984L344.72 746.586V744.547C344.72 741.57 342.751 739.789 339.376 739.789C336.236 739.789 334.267 741.266 333.751 743.656H329.814C330.095 739.438 333.704 736.203 339.47 736.203C345.189 736.203 348.798 739.297 348.798 744.148V761H344.931V756.805H344.837C343.384 759.594 340.29 761.422 337.009 761.422ZM373.41 739.93H367.574V746.75H372.801C375.871 746.75 377.348 745.625 377.348 743.281C377.348 741.125 375.965 739.93 373.41 739.93ZM373.129 750.031H367.574V757.695H373.856C376.809 757.695 378.403 756.359 378.403 753.898C378.403 751.297 376.692 750.031 373.129 750.031ZM363.543 761V736.625H373.973C378.543 736.625 381.332 738.992 381.332 742.859C381.332 745.344 379.574 747.641 377.324 748.109V748.297C380.395 748.719 382.41 750.945 382.41 753.992C382.41 758.305 379.223 761 374.043 761H363.543ZM402.241 750.242C401.749 756.969 400.132 761.211 394.999 761.211C394.296 761.211 393.827 761.07 393.546 760.953V757.273C393.757 757.344 394.202 757.461 394.788 757.461C397.202 757.461 398.116 754.625 398.421 750.148L399.358 736.625H415.319V761H411.288V739.977H402.991L402.241 750.242ZM440.002 739.742C436.182 739.742 433.51 742.672 433.252 746.727H446.494C446.4 742.648 443.846 739.742 440.002 739.742ZM446.4 754.016H450.408C449.705 758.281 445.58 761.422 440.26 761.422C433.275 761.422 429.033 756.57 429.033 748.906C429.033 741.336 433.346 736.203 440.072 736.203C446.658 736.203 450.713 740.984 450.713 748.367V749.914H433.228V750.148C433.228 754.812 435.971 757.883 440.353 757.883C443.447 757.883 445.721 756.312 446.4 754.016ZM480.411 761V750.031H468.388V761H464.356V736.625H468.388V746.68H480.411V736.625H484.442V761H480.411ZM503.336 761H499.304V736.625H503.336V754.766H503.523L515.711 736.625H519.742V761H515.711V742.859H515.523L503.336 761ZM543.346 748.977H548.01V739.977H543.346C540.182 739.977 538.167 741.711 538.167 744.641C538.167 747.172 540.206 748.977 543.346 748.977ZM548.01 761V752.328H543.698L537.51 761H532.846L539.643 751.578C536.198 750.594 534.112 748.062 534.112 744.711C534.112 739.695 537.721 736.625 543.323 736.625H552.042V761H548.01ZM602.039 757.648V739.977H592.899L592.149 750.242C591.938 753.266 591.305 755.914 590.157 757.461V757.648H602.039ZM587.25 767.445H583.453V757.648H585.493C587.274 756.477 588.141 753.43 588.375 750.148L589.313 736.625H606.094V757.648H609.961V767.445H606.164V761H587.25V767.445ZM632.863 761.422C626.113 761.422 621.566 756.57 621.566 748.812C621.566 741.031 626.113 736.203 632.863 736.203C639.589 736.203 644.136 741.031 644.136 748.812C644.136 756.57 639.589 761.422 632.863 761.422ZM632.863 757.836C637.175 757.836 639.988 754.555 639.988 748.812C639.988 743.07 637.175 739.789 632.863 739.789C628.55 739.789 625.714 743.07 625.714 748.812C625.714 754.555 628.55 757.836 632.863 757.836ZM677.959 744.125H673.928C673.225 741.781 671.233 739.789 667.787 739.789C663.545 739.789 660.756 743.375 660.756 748.812C660.756 754.391 663.592 757.836 667.834 757.836C671.068 757.836 673.201 756.242 673.975 753.547H678.006C677.209 758.164 673.295 761.422 667.811 761.422C661.037 761.422 656.608 756.57 656.608 748.812C656.608 741.219 661.014 736.203 667.764 736.203C673.647 736.203 677.233 739.977 677.959 744.125ZM708.735 736.625V739.977H700.86V761H696.829V739.977H688.954V736.625H708.735ZM723.668 770.117C723.176 770.117 722.355 770.07 721.91 769.977V766.555C722.355 766.648 722.988 766.672 723.504 766.672C725.777 766.672 727.043 765.57 727.98 762.734L728.543 761.023L719.543 736.625H723.902L730.652 756.922H730.723L737.473 736.625H741.762L732.176 762.711C730.09 768.406 728.074 770.117 723.668 770.117ZM770.335 761V739.977H758.546V761H754.514V736.625H774.389V761H770.335ZM799.353 761.422C792.603 761.422 788.056 756.57 788.056 748.812C788.056 741.031 792.603 736.203 799.353 736.203C806.08 736.203 810.627 741.031 810.627 748.812C810.627 756.57 806.08 761.422 799.353 761.422ZM799.353 757.836C803.666 757.836 806.478 754.555 806.478 748.812C806.478 743.07 803.666 739.789 799.353 739.789C795.041 739.789 792.205 743.07 792.205 748.812C792.205 754.555 795.041 757.836 799.353 757.836ZM828.301 761H824.27V736.625H829.215L837.887 755.609H838.075L846.793 736.625H851.551V761H847.497V743.703H847.333L839.458 760.297H836.34L828.465 743.703H828.301V761Z" fill="#687377"/>
<defs>
<linearGradient id="paint0_linear_162_7804" x1="529.75" y1="525.205" x2="529.75" y2="48.385" gradientUnits="userSpaceOnUse">
<stop stop-color="#07699E"/>
<stop offset="1" stop-color="#0CBBEA"/>
</linearGradient>
<linearGradient id="paint1_linear_162_7804" x1="617.54" y1="314.195" x2="617.54" y2="93.8952" gradientUnits="userSpaceOnUse">
<stop stop-color="#0CBBEA"/>
<stop offset="1" stop-color="#07699E"/>
</linearGradient>
<linearGradient id="paint2_linear_162_7804" x1="442.35" y1="3.99522" x2="442.35" y2="93.8952" gradientUnits="userSpaceOnUse">
<stop stop-color="#0CBBEA"/>
<stop offset="1" stop-color="#07699E"/>
</linearGradient>
<linearGradient id="paint3_linear_162_7804" x1="532.985" y1="396.066" x2="532.985" y2="141.161" gradientUnits="userSpaceOnUse">
<stop stop-color="#07699E"/>
<stop offset="1" stop-color="#0CBBEA"/>
</linearGradient>
<linearGradient id="paint4_linear_162_7804" x1="532.639" y1="669.619" x2="532.639" y2="553.25" gradientUnits="userSpaceOnUse">
<stop stop-color="#07699E"/>
<stop offset="1" stop-color="#0CBBEA"/>
</linearGradient>
</defs>
</svg>
