<svg width="383" height="520" viewBox="0 0 383 520" fill="none" xmlns="http://www.w3.org/2000/svg">
<path d="M373.32 94.815L198.53 1.845C193.9 -0.615 188.35 -0.615 183.72 1.845L8.98032 94.825C4.02032 97.465 0.840341 102.545 0.630341 108.155C-6.99966 312.625 54.6703 450.265 183.92 517.245C186.19 518.425 188.68 519.015 191.17 519.015C193.66 519.015 196.15 518.425 198.43 517.245C327.64 450.235 389.29 312.595 381.66 108.155C381.45 102.545 378.27 97.465 373.31 94.825L373.32 94.815ZM191.18 485.355C78.9103 423.375 26.7403 303.175 31.8603 118.365L191.14 33.615L350.46 118.365C355.58 303.145 303.42 423.345 191.18 485.355Z" fill="url(#paint0_linear_166_7814)"/>
<path d="M191.37 485.365C303.59 423.345 355.78 303.135 350.64 118.365L191.34 33.6055L365.75 110.415C374.67 314.965 308.17 444.565 191.38 485.365H191.37Z" fill="url(#paint1_linear_166_7814)"/>
<path d="M191.31 485.365C79.0903 423.345 26.9003 303.135 32.0403 118.365L191.34 33.6055L16.9303 110.415C8.0103 314.965 74.5103 444.565 191.3 485.365H191.31Z" fill="url(#paint2_linear_166_7814)"/>
<path d="M194.353 359.281C138.359 359.281 103.311 319.989 103.311 257.287C103.311 194.584 138.359 155.156 194.353 155.156C250.347 155.156 285.394 194.584 285.394 257.287C285.394 295.483 272.388 325.055 249.525 342.305L275.674 378.311H248.019L229.674 353.12C219.133 357.227 207.359 359.281 194.353 359.281ZM194.353 336.555C201.883 336.555 208.865 335.459 215.299 333.406L190.656 299.453H218.311L235.15 322.453C251.031 309.037 260.067 286.311 260.067 257.287C260.067 208.549 234.74 177.882 194.353 177.882C153.966 177.882 128.638 208.549 128.638 257.287C128.638 305.888 153.966 336.555 194.353 336.555Z" fill="url(#paint3_linear_166_7814)"/>
<defs>
<linearGradient id="paint0_linear_166_7814" x1="191.15" y1="521.205" x2="191.15" y2="44.385" gradientUnits="userSpaceOnUse">
<stop stop-color="#07699E"/>
<stop offset="1" stop-color="#0CBBEA"/>
</linearGradient>
<linearGradient id="paint1_linear_166_7814" x1="278.94" y1="310.195" x2="278.94" y2="89.8955" gradientUnits="userSpaceOnUse">
<stop stop-color="#0CBBEA"/>
<stop offset="1" stop-color="#07699E"/>
</linearGradient>
<linearGradient id="paint2_linear_166_7814" x1="103.75" y1="-0.00453398" x2="103.75" y2="89.8955" gradientUnits="userSpaceOnUse">
<stop stop-color="#0CBBEA"/>
<stop offset="1" stop-color="#07699E"/>
</linearGradient>
<linearGradient id="paint3_linear_166_7814" x1="194.386" y1="392.066" x2="194.386" y2="137.161" gradientUnits="userSpaceOnUse">
<stop stop-color="#07699E"/>
<stop offset="1" stop-color="#0CBBEA"/>
</linearGradient>
</defs>
</svg>
