<svg width="22" height="22" viewBox="0 0 22 22" fill="none" xmlns="http://www.w3.org/2000/svg">
<path d="M13.75 4.5835V6.41683" stroke="#8B909A" stroke-width="1.75" stroke-linecap="round" stroke-linejoin="round"/>
<path d="M13.75 4.5835V6.41683" stroke="#8B909A" stroke-width="1.75" stroke-linecap="round" stroke-linejoin="round"/>
<path d="M13.75 10.0835V11.9168" stroke="#8B909A" stroke-width="1.75" stroke-linecap="round" stroke-linejoin="round"/>
<path d="M13.75 10.0835V11.9168" stroke="#8B909A" stroke-width="1.75" stroke-linecap="round" stroke-linejoin="round"/>
<path d="M13.75 15.5835V17.4168" stroke="#8B909A" stroke-width="1.75" stroke-linecap="round" stroke-linejoin="round"/>
<path d="M13.75 15.5835V17.4168" stroke="#8B909A" stroke-width="1.75" stroke-linecap="round" stroke-linejoin="round"/>
<path d="M4.58333 4.5835H17.4167C18.4292 4.5835 19.25 5.40431 19.25 6.41683V9.16683C18.2375 9.16683 17.4167 9.98764 17.4167 11.0002C17.4167 12.0127 18.2375 12.8335 19.25 12.8335V15.5835C19.25 16.596 18.4292 17.4168 17.4167 17.4168H4.58333C3.57081 17.4168 2.75 16.596 2.75 15.5835V12.8335C3.76252 12.8335 4.58333 12.0127 4.58333 11.0002C4.58333 9.98764 3.76252 9.16683 2.75 9.16683V6.41683C2.75 5.40431 3.57081 4.5835 4.58333 4.5835" stroke="#8B909A" stroke-width="1.75" stroke-linecap="round" stroke-linejoin="round"/>
<path d="M4.58333 4.5835H17.4167C18.4292 4.5835 19.25 5.40431 19.25 6.41683V9.16683C18.2375 9.16683 17.4167 9.98764 17.4167 11.0002C17.4167 12.0127 18.2375 12.8335 19.25 12.8335V15.5835C19.25 16.596 18.4292 17.4168 17.4167 17.4168H4.58333C3.57081 17.4168 2.75 16.596 2.75 15.5835V12.8335C3.76252 12.8335 4.58333 12.0127 4.58333 11.0002C4.58333 9.98764 3.76252 9.16683 2.75 9.16683V6.41683C2.75 5.40431 3.57081 4.5835 4.58333 4.5835" stroke="#8B909A" stroke-width="1.75" stroke-linecap="round" stroke-linejoin="round"/>
</svg>
